<svg width="1120" height="924" viewBox="0 0 1120 924" fill="none" xmlns="http://www.w3.org/2000/svg">
<g id="circulo">
<g id="Group 1">
<ellipse id="Ellipse 3" cx="125.055" cy="121.578" rx="116.81" ry="121.578" fill="#393939"/>
<ellipse id="Ellipse 5" cx="562.061" cy="121.578" rx="116.81" ry="121.578" fill="#393939"/>
<ellipse id="Ellipse 7" cx="1003.19" cy="121.578" rx="116.81" ry="121.578" fill="#393939"/>
<ellipse id="Ellipse 4" cx="127.117" cy="121.578" rx="118.871" ry="121.578" fill="#393939"/>
<ellipse id="Ellipse 6" cx="560" cy="121.578" rx="118.871" ry="121.578" fill="#393939"/>
<ellipse id="Ellipse 8" cx="1001.13" cy="121.578" rx="118.871" ry="121.578" fill="#393939"/>
</g>
<g id="Group 3">
<ellipse id="Ellipse 3_2" cx="120.932" cy="461.997" rx="116.81" ry="121.578" fill="#393939"/>
<ellipse id="Ellipse 5_2" cx="557.939" cy="461.997" rx="116.81" ry="121.578" fill="#393939"/>
<ellipse id="Ellipse 7_2" cx="999.067" cy="461.997" rx="116.81" ry="121.578" fill="#393939"/>
<ellipse id="Ellipse 4_2" cx="122.994" cy="461.997" rx="118.871" ry="121.578" fill="#393939"/>
<ellipse id="Ellipse 6_2" cx="555.877" cy="461.997" rx="118.871" ry="121.578" fill="#393939"/>
<ellipse id="Ellipse 8_2" cx="997.006" cy="461.997" rx="118.871" ry="121.578" fill="#393939"/>
</g>
<g id="Group 6">
<ellipse id="Ellipse 3_3" cx="116.81" cy="802.417" rx="116.81" ry="121.578" fill="#393939"/>
<ellipse id="Ellipse 5_3" cx="553.816" cy="802.417" rx="116.81" ry="121.578" fill="#393939"/>
<ellipse id="Ellipse 7_3" cx="994.945" cy="802.417" rx="116.81" ry="121.578" fill="#393939"/>
<ellipse id="Ellipse 4_3" cx="118.871" cy="802.417" rx="118.871" ry="121.578" fill="#393939"/>
<ellipse id="Ellipse 6_3" cx="551.755" cy="802.417" rx="118.871" ry="121.578" fill="#393939"/>
<ellipse id="Ellipse 8_3" cx="992.883" cy="802.417" rx="118.871" ry="121.578" fill="#393939"/>
</g>
</g>
</svg>
